<?xml version="1.0" encoding="utf-8"?>
<!-- Generator: Adobe Illustrator 19.0.0, SVG Export Plug-In . SVG Version: 6.00 Build 0)  -->
<svg version="1.1" id="Layer_1" xmlns="http://www.w3.org/2000/svg" xmlns:xlink="http://www.w3.org/1999/xlink" x="0px" y="0px"
	 viewBox="0 0 302.9 288.4" style="enable-background:new 0 0 302.9 288.4;" xml:space="preserve">
<style type="text/css">
	.st0{fill:none;stroke:#00ACED;stroke-width:3;stroke-miterlimit:10;}
	.st1{fill:#00ACED;}
</style>
<g id="XMLID_1_">
	<ellipse id="XMLID_3_" class="st0" cx="151.5" cy="144.2" rx="150" ry="142.7"/>
	<g id="XMLID_8_">
		<path id="XMLID_9_" class="st1" d="M47.6,198.8c-0.8,0-2.6,2.1-5.4,6.3c-0.9,1.4-1.5,2.2-1.6,2.3c-0.2,0.1-0.4,0.2-0.8,0.3
			c-0.4,0.1-0.8,0.1-1,0.1c-0.6,0-0.9-1-0.9-3c0-1.1,0.3-3.1,0.9-6.1c0.2-1.2,0.4-2,0.4-2.5c0-0.5,0.3-0.8,0.8-0.8
			c1,0,1.5,0.6,1.5,1.8c0,0.6-0.2,1.7-0.5,3.4c-0.4,1.9-0.6,3.1-0.6,3.5c0.6-0.5,1.4-1.5,2.5-3c1.5-2.1,2.7-3.5,3.4-4
			c0.7-0.6,1.5-0.9,2.3-0.9c0.6,0,1.1,0.3,1.4,1c0.3,0.7,0.6,2.2,0.6,4.7c0,0.6,0.1,1.1,0.2,1.4s0.2,0.5,0.3,0.5
			c0.4,0,1.3-1.2,2.8-3.7c0.8-1.3,1.5-2.3,2.2-2.9c0.7-0.7,1.5-1,2.4-1c0.7,0,1.3,0.3,1.6,1c0.3,0.6,0.6,1.6,0.7,2.8
			c0.1,1.3,0.3,2.4,0.6,3.5c0.3,1.1,0.8,1.7,1.6,2c0.5,0.2,0.8,0.4,0.8,0.7c0,0.3-0.2,0.5-0.6,0.8c-0.4,0.3-0.8,0.4-1.2,0.4
			c-0.7,0-1.4-0.4-1.9-1.1c-0.6-0.7-1-2.4-1.3-4.8c-0.1-1-0.2-1.7-0.4-2.1s-0.3-0.6-0.6-0.6c-0.4,0-0.8,0.3-1.3,0.9
			c-0.5,0.6-1.4,1.9-2.5,3.7c-0.9,1.5-1.6,2.4-2,2.9c-0.5,0.5-0.9,0.7-1.3,0.7c-0.4,0-0.7-0.1-1-0.4c-0.3-0.3-0.5-0.6-0.6-1
			c-0.1-0.4-0.2-1.3-0.3-2.7C48.2,200.6,47.9,199.2,47.6,198.8z"/>
		<path id="XMLID_11_" class="st1" d="M75.4,202.8c-1.2,1.6-2.3,2.9-3.5,3.8c-1.2,0.9-2.3,1.3-3.4,1.3c-0.6,0-1.2-0.3-1.8-0.9
			c-0.6-0.6-0.9-1.5-0.9-2.7c0-1,0.3-2.5,0.9-4.4c0.5-1.6,0.7-2.8,0.7-3.4c0.3-0.5,0.7-0.7,1.2-0.7c0.4,0,0.7,0.1,0.9,0.3
			c0.2,0.2,0.3,0.5,0.3,0.7c0,0.5-0.2,1.3-0.7,2.3c-0.8,1.9-1.3,3.6-1.3,4.9c0,1.3,0.3,1.9,1,1.9c0.9,0,2-0.6,3.3-1.9
			c1.4-1.3,2.5-3,3.5-5.3c0.4-0.9,0.7-1.5,0.9-1.8c0.2-0.3,0.6-0.4,1-0.4c0.6,0,0.9,0.3,0.9,1c0,0.1-0.1,0.4-0.3,0.8
			c-0.5,1.7-0.8,3.2-0.8,4.7c0,1.8,0.3,2.9,1,3.5c0.4,0.3,0.5,0.5,0.5,0.7c0,0.2-0.2,0.4-0.5,0.6c-0.4,0.2-0.7,0.3-1,0.3
			c-0.6,0-1.1-0.4-1.5-1.2c-0.4-0.8-0.6-2-0.6-3.5v-0.4C75.4,203.1,75.4,203,75.4,202.8z"/>
		<path id="XMLID_13_" class="st1" d="M88.3,196.3c0.9-0.1,1.8-0.1,2.6-0.2c0.8-0.1,1.5-0.1,2-0.1c0.7,0,1.1,0.1,1.3,0.2
			c0.2,0.1,0.3,0.3,0.3,0.6c0,0.6-0.5,1-1.5,1c-1.3,0.1-2.5,0.2-3.6,0.3c-1.1,0.1-1.7,0.2-1.8,0.3c-0.1,0.1-0.4,1-0.8,2.7
			c-0.5,1.7-0.7,2.9-0.7,3.4c0,0.8,0.1,1.4,0.4,1.7c0.3,0.3,0.7,0.4,1.2,0.4c0.8,0,1.9-0.5,3.2-1.5c0.5-0.4,0.9-0.6,1.2-0.6
			c0.4,0,0.6,0.2,0.6,0.5c0,0.5-0.6,1.3-1.9,2.1c-1.2,0.9-2.5,1.3-3.8,1.3c-2.2,0-3.3-1.1-3.3-3.3c0-0.8,0.2-2,0.7-3.6
			c0.4-1.6,0.7-2.6,0.7-3c0-0.1-0.1-0.2-0.3-0.2l-1.4,0.1c-1.2,0-1.7-0.4-1.7-1.2c0-0.4,0.3-0.7,0.8-0.7h2.8c0.2,0,0.4-0.1,0.5-0.2
			c0.1-0.1,0.4-0.6,0.6-1.5c0.3-0.8,0.5-1.6,0.7-2.5c0.2-0.8,0.6-1.2,1.3-1.2c0.4,0,0.7,0.1,0.9,0.3c0.2,0.2,0.3,0.4,0.3,0.6
			c0,0.1-0.2,0.7-0.5,1.6L88.3,196.3z"/>
		<path id="XMLID_15_" class="st1" d="M98,204.4c3.4-5.2,6.1-7.9,8.3-7.9c0.6,0,1,0.3,1.4,0.8c0.4,0.6,0.7,1.8,0.9,3.7
			c0.2,2,0.7,3.5,1.5,4.4c0.4,0.5,0.6,0.8,0.6,1c0,0.2-0.1,0.4-0.4,0.5c-0.3,0.2-0.6,0.3-0.9,0.3c-0.7,0-1.3-0.3-1.9-1
			c-0.5-0.7-0.9-1.8-1-3.5c-0.2-1.6-0.3-2.6-0.5-3.1c-0.2-0.5-0.5-0.7-0.9-0.7c-0.9,0-2.9,2.1-5.7,6.3c-0.9,1.3-1.5,2.1-1.9,2.5
			c-0.4,0.4-0.8,0.6-1.1,0.6c-0.4,0-0.7-0.1-1-0.3c-0.3-0.2-0.4-0.4-0.4-0.7c0-0.2,0.1-0.6,0.2-1.2c1.1-4.8,2-9.6,2.6-14.4
			c0.1-1.1,0.4-1.8,0.7-2.2c0.3-0.4,0.6-0.5,0.8-0.5c0.4,0,0.7,0.1,1.1,0.4c0.3,0.3,0.5,0.6,0.5,1.1c0,1.4-0.4,3.3-1.2,5.8
			c-0.4,1.2-0.8,2.8-1.3,4.6c-0.4,1.9-0.7,3-0.7,3.5C97.8,204.3,97.8,204.4,98,204.4L98,204.4z"/>
		<path id="XMLID_17_" class="st1" d="M117.1,208.4c-1.2,0-2.3-0.4-3.1-1.2c-0.8-0.8-1.2-1.8-1.2-2.9c0-2,0.8-3.9,2.4-5.8
			c1.6-1.9,3.4-2.9,5.6-2.9c1.4,0,2.6,0.5,3.5,1.4c0.9,0.9,1.3,2.1,1.3,3.4c0,2-0.9,3.8-2.8,5.5C121,207.5,119.1,208.4,117.1,208.4z
			 M115.2,204c0,0.8,0.2,1.4,0.6,1.9c0.4,0.5,0.9,0.7,1.5,0.7c1.3,0,2.7-0.6,4-1.9c1.4-1.2,2-2.6,2-4.2c0-0.9-0.3-1.7-0.8-2.3
			c-0.5-0.6-1.2-0.9-2.1-0.9c-1.5,0-2.7,0.8-3.7,2.3C115.7,201.2,115.2,202.6,115.2,204z"/>
		<path id="XMLID_20_" class="st1" d="M138,199c-0.5,0-1,0.3-1.5,0.8c-0.6,0.5-1.4,1.7-2.5,3.5c-1.5,2.4-2.5,3.8-2.9,4.1
			c-0.4,0.3-0.8,0.5-1.1,0.5c-1.1,0-1.6-0.4-1.6-1.3c0-0.4,0.1-0.9,0.2-1.6c0.5-2.3,0.7-4.7,0.7-7.3c0-0.3,0.1-0.6,0.4-1
			c0.3-0.4,0.6-0.5,0.8-0.5c0.5,0,0.8,0.1,1,0.4c0.2,0.2,0.3,0.7,0.3,1.5c0,0.8-0.3,2.4-0.8,4.8c-0.2,0.8-0.3,1.3-0.3,1.5
			c0,0.1,0,0.2,0.1,0.2c0.1,0,0.8-0.9,1.9-2.7c1.1-1.9,2.1-3.2,3-3.9c0.8-0.8,1.8-1.1,2.8-1.1c0.8,0,1.5,0.3,2,0.9
			c0.5,0.6,0.9,1.8,1.1,3.4c0.3,1.9,0.5,3.1,0.7,3.5c0.2,0.5,0.5,0.7,1,0.7c0.3,0,0.6-0.1,1.1-0.3c0.1,0,0.1,0,0.2,0
			c0.4,0,0.6,0.2,0.6,0.6c0,0.3-0.3,0.7-0.8,1.1c-0.5,0.4-1.2,0.6-1.9,0.6c-0.8,0-1.4-0.3-1.8-0.8c-0.4-0.5-0.8-1.9-1-4.1
			C139.4,200.1,138.8,199,138,199z"/>
		<path id="XMLID_22_" class="st1" d="M149.8,205.3c0,0.6,0.1,1.2,0.3,2c0,0.1,0.1,0.3,0.1,0.3c0,0.1-0.1,0.3-0.4,0.5
			c-0.3,0.2-0.6,0.3-0.9,0.3c-0.9,0-1.3-0.7-1.3-2c0-1.4,0.3-3.6,1-6.7c0.2-1.1,0.4-1.7,0.4-2c0-0.5,0.1-0.9,0.3-1.2
			c0.2-0.3,0.5-0.5,0.9-0.5c0.5,0,0.8,0.1,1.1,0.3c0.3,0.2,0.4,0.4,0.4,0.6c0,0.2-0.1,0.5-0.2,0.9c-0.7,2-1.1,3.5-1.3,4.3
			C149.9,203,149.8,204.1,149.8,205.3z M151.5,192.5c-0.2,0-0.3-0.2-0.4-0.5c0-0.1-0.1-0.2-0.1-0.4c-0.2-0.5-0.4-0.9-0.4-1.3
			c0-0.3,0.2-0.6,0.6-0.9c0.4-0.3,0.9-0.5,1.4-0.5c0.3,0,0.6,0.1,0.9,0.3c0.3,0.2,0.5,0.3,0.5,0.5c0,0.3-0.1,0.7-0.3,1.3
			s-0.6,1-1.1,1.2C152.2,192.4,151.8,192.5,151.5,192.5z"/>
		<path id="XMLID_25_" class="st1" d="M171.8,196.3c0.9-0.1,1.8-0.1,2.6-0.2c0.8-0.1,1.5-0.1,2-0.1c0.7,0,1.1,0.1,1.3,0.2
			s0.3,0.3,0.3,0.6c0,0.6-0.5,1-1.5,1c-1.3,0.1-2.5,0.2-3.6,0.3c-1.1,0.1-1.7,0.2-1.8,0.3c-0.1,0.1-0.4,1-0.8,2.7
			c-0.5,1.7-0.7,2.9-0.7,3.4c0,0.8,0.1,1.4,0.4,1.7c0.3,0.3,0.7,0.4,1.2,0.4c0.8,0,1.9-0.5,3.2-1.5c0.5-0.4,0.9-0.6,1.2-0.6
			c0.4,0,0.6,0.2,0.6,0.5c0,0.5-0.6,1.3-1.9,2.1c-1.2,0.9-2.5,1.3-3.8,1.3c-2.2,0-3.3-1.1-3.3-3.3c0-0.8,0.2-2,0.7-3.6
			c0.4-1.6,0.7-2.6,0.7-3c0-0.1-0.1-0.2-0.3-0.2l-1.4,0.1c-1.2,0-1.7-0.4-1.7-1.2c0-0.4,0.3-0.7,0.8-0.7h2.8c0.2,0,0.4-0.1,0.5-0.2
			c0.1-0.1,0.4-0.6,0.6-1.5c0.3-0.8,0.5-1.6,0.7-2.5c0.2-0.8,0.6-1.2,1.3-1.2c0.4,0,0.7,0.1,0.9,0.3c0.2,0.2,0.3,0.4,0.3,0.6
			c0,0.1-0.2,0.7-0.5,1.6L171.8,196.3z"/>
		<path id="XMLID_27_" class="st1" d="M181.5,204.4c3.4-5.2,6.1-7.9,8.3-7.9c0.6,0,1,0.3,1.4,0.8c0.4,0.6,0.7,1.8,0.9,3.7
			c0.2,2,0.7,3.5,1.5,4.4c0.4,0.5,0.6,0.8,0.6,1c0,0.2-0.1,0.4-0.4,0.5c-0.3,0.2-0.6,0.3-0.9,0.3c-0.7,0-1.3-0.3-1.9-1
			c-0.5-0.7-0.9-1.8-1-3.5c-0.2-1.6-0.3-2.6-0.5-3.1c-0.2-0.5-0.5-0.7-0.9-0.7c-0.9,0-2.9,2.1-5.7,6.3c-0.9,1.3-1.5,2.1-1.9,2.5
			c-0.4,0.4-0.8,0.6-1.1,0.6c-0.4,0-0.7-0.1-1-0.3c-0.3-0.2-0.4-0.4-0.4-0.7c0-0.2,0.1-0.6,0.2-1.2c1.1-4.8,2-9.6,2.6-14.4
			c0.1-1.1,0.4-1.8,0.7-2.2c0.3-0.4,0.6-0.5,0.8-0.5c0.4,0,0.7,0.1,1.1,0.4c0.3,0.3,0.5,0.6,0.5,1.1c0,1.4-0.4,3.3-1.2,5.8
			c-0.4,1.2-0.8,2.8-1.3,4.6s-0.7,3-0.7,3.5C181.3,204.3,181.4,204.4,181.5,204.4L181.5,204.4z"/>
		<path id="XMLID_29_" class="st1" d="M199.4,203.3c0.1-0.1,0.2-0.3,0.3-0.6c0.6-1.2,1.2-2.1,1.7-2.8c0.5-0.7,1.1-1.3,1.7-1.9
			c0.6-0.6,1.2-1.1,1.7-1.4c0.5-0.3,1-0.5,1.4-0.7c0.4-0.1,0.8-0.2,1.2-0.2c0.8,0,1.4,0.2,1.9,0.6c0.5,0.4,0.7,0.9,0.7,1.4
			c0,0.2-0.1,0.5-0.3,0.6c-0.2,0.2-0.4,0.3-0.8,0.3c-0.4,0-0.7-0.1-1-0.4c-0.3-0.3-0.7-0.4-1-0.4c-0.9,0-2.2,1-3.9,2.9
			c-1.7,1.9-2.7,4-3,6.3c-0.1,0.6-0.3,1-0.5,1.2c-0.2,0.2-0.6,0.3-1.1,0.3c-0.4,0-0.8-0.3-1-0.8c-0.2-0.6-0.3-1.5-0.3-2.8
			c0-0.4,0-1.1,0.1-2.4c0.1-1.4,0.2-2.6,0.3-3.5c0-0.1,0.1-0.5,0.1-1c0.1-0.6,0.1-1,0.2-1.2c0.1-0.2,0.3-0.4,0.6-0.6
			c0.3-0.2,0.6-0.3,1-0.3c0.3,0,0.6,0.1,0.7,0.3c0.2,0.2,0.2,0.4,0.2,0.6c0,0.3-0.1,0.7-0.3,1.3c-0.2,0.6-0.3,1-0.4,1.2
			c0,0.3-0.1,0.5-0.1,0.8c-0.1,0.3-0.2,1.2-0.3,2.6l0,0.4V203.3z"/>
		<path id="XMLID_31_" class="st1" d="M213.6,205.3c0,0.6,0.1,1.2,0.3,2c0,0.1,0.1,0.3,0.1,0.3c0,0.1-0.1,0.3-0.4,0.5
			c-0.3,0.2-0.6,0.3-0.9,0.3c-0.9,0-1.3-0.7-1.3-2c0-1.4,0.3-3.6,1-6.7c0.2-1.1,0.4-1.7,0.4-2c0-0.5,0.1-0.9,0.3-1.2
			c0.2-0.3,0.5-0.5,0.9-0.5c0.5,0,0.8,0.1,1.1,0.3c0.3,0.2,0.4,0.4,0.4,0.6c0,0.2-0.1,0.5-0.2,0.9c-0.7,2-1.1,3.5-1.3,4.3
			C213.7,203,213.6,204.1,213.6,205.3z M215.4,192.5c-0.2,0-0.3-0.2-0.4-0.5c0-0.1-0.1-0.2-0.1-0.4c-0.2-0.5-0.4-0.9-0.4-1.3
			c0-0.3,0.2-0.6,0.6-0.9c0.4-0.3,0.9-0.5,1.4-0.5c0.3,0,0.6,0.1,0.9,0.3c0.3,0.2,0.5,0.3,0.5,0.5c0,0.3-0.1,0.7-0.3,1.3
			s-0.6,1-1.1,1.2C216,192.4,215.6,192.5,215.4,192.5z"/>
		<path id="XMLID_34_" class="st1" d="M221.6,208c0-0.4-0.4-1.6-1.1-3.4c-1.5-3.4-2.2-5.8-2.2-7.2c0-1.1,0.4-1.6,1.3-1.6
			c0.8,0,1.2,0.5,1.2,1.4c0,0.8,0,1.4,0.1,1.8c0.1,0.4,0.3,1.2,0.6,2.3c0.4,1.1,0.8,2.2,1.2,3.1c0.2,0.5,0.4,0.9,0.5,1.2
			c0.2-0.2,0.4-0.6,0.7-1c1.6-2.3,2.9-4,3.8-5.2c0.9-1.2,1.7-2.1,2.3-2.7c0.6-0.6,1-0.9,1.3-1c0.3-0.1,0.6-0.2,0.9-0.2
			c0.4,0,0.6,0.1,0.8,0.3c0.2,0.2,0.3,0.5,0.3,0.7c0,0.4-0.4,0.7-1.1,1.2c-0.7,0.4-1.7,1.4-3.1,3c-1.4,1.6-2.8,3.6-4.4,6.1
			c-0.8,1.3-1.4,1.9-1.9,1.9C222.6,208.7,222.1,208.5,221.6,208z"/>
		<path id="XMLID_36_" class="st1" d="M245.8,203.9c0,0.8-0.8,1.7-2.4,2.8c-1.6,1.1-3.3,1.6-5,1.6c-1.5,0-2.6-0.4-3.4-1.1
			c-0.8-0.7-1.2-1.7-1.2-3c0-2.2,0.9-4.3,2.6-6.2c1.7-2,3.6-3,5.7-3c0.7,0,1.2,0.2,1.7,0.6c0.4,0.4,0.6,0.8,0.6,1.3
			c0,1.2-0.7,2.3-2,3.4c-1.4,1.1-3.2,2.1-5.5,3.2c-0.5,0.2-0.7,0.5-0.7,0.8c0,0.6,0.2,1.1,0.6,1.5c0.4,0.4,1.1,0.6,1.9,0.6
			c1.9,0,3.9-0.9,5.9-2.7c0.3-0.3,0.5-0.4,0.7-0.4C245.6,203.4,245.8,203.5,245.8,203.9z M236.4,202.2c3.8-1.9,5.7-3.5,5.7-4.6
			c0-0.5-0.2-0.7-0.7-0.7c-0.8,0-1.8,0.5-2.8,1.5C237.5,199.4,236.8,200.7,236.4,202.2z"/>
		<path id="XMLID_39_" class="st1" d="M255.4,205.2c0-0.5-0.7-1.1-2.2-1.7c-1.8-0.8-3.1-1.4-3.7-1.9c-0.6-0.5-1-1-1-1.6
			c0-1.5,0.9-2.8,2.7-3.8c1.8-1,3.3-1.5,4.4-1.5c0.7,0,1.3,0.1,1.6,0.3c0.3,0.2,0.5,0.6,0.5,1.1c0,0.2-0.1,0.4-0.4,0.6
			c-0.2,0.2-0.4,0.3-0.6,0.3c-0.1,0-0.3-0.1-0.6-0.2c-0.3-0.1-0.5-0.2-0.6-0.2c-0.5,0-1.4,0.3-2.7,0.8c-1.4,0.6-2.1,1.2-2.1,1.9
			c0,0.4,0.2,0.8,0.7,1.2c0.5,0.3,1.4,0.8,2.6,1.3c1,0.4,1.8,0.9,2.4,1.3c0.6,0.5,0.9,1,0.9,1.7c0,1.2-1,2.1-2.9,2.7
			c-1.9,0.7-3.7,1-5.5,1c-1.5,0-2.2-0.4-2.2-1.3c0-0.3,0.2-0.5,0.5-0.6c0.3-0.1,0.7-0.2,1-0.2c0.1,0,0.4,0,0.8,0.1
			c0.4,0.1,0.6,0.1,0.7,0.1c1,0,2.1-0.1,3.2-0.4C254.4,206,255.1,205.6,255.4,205.2z"/>
	</g>
	<g id="XMLID_6_">
		<path id="XMLID_2_" class="st1" d="M103.5,181.3l-5.7-73.9c-1.2,12.4-3.6,24-6.9,34.8c-3.4,10.8-7.2,19.1-11.5,25
			c-4.3,5.9-8.7,10-13.1,12.4c-4.5,2.4-8.9,3.6-13.3,3.6c-2.6,0-4.7-0.5-6.1-1.5c-1.4-1-2.1-2.3-2.1-3.7c0-1.2,0.5-2.3,1.6-3.2
			c1-0.9,2.3-1.4,3.9-1.4c1.2,0,2.8,0.2,5,0.7c2,0.5,3.6,0.7,4.9,0.7c2.3,0,4.6-0.8,7.1-2.4c3.7-2.4,7.4-6.6,11-12.8
			c3.6-6.1,6.9-14.7,9.7-25.7c2.9-11,4.6-21.7,5.4-32.2c-10.9,0-19.8,2.6-26.6,7.8c-5.4,4.1-8.1,8.7-8.1,13.8c0,2.2,1.3,4.9,3.8,8.1
			c1.4,1.7,2.1,3.1,2.1,4.1c0,1.2-0.4,2.2-1.2,3c-0.8,0.8-1.7,1.2-2.8,1.2c-1.9,0-3.5-1-4.9-3c-2-2.7-2.9-5.9-2.9-9.6
			c0-5.2,1.8-10.2,5.5-15c3.7-4.8,8.8-8.4,15.3-10.9c6.5-2.5,14.1-3.8,22.9-3.8c4.7,0,8.5-0.4,11.3-1.2c-0.2,4.1-0.2,6.3-0.2,6.7
			c0,0.4,0,1.4,0.2,2.8l4.2,52.2c11.6-19.3,23-35.2,34.1-47.7c7.9-8.8,14.7-14.8,20.6-17.9c-3.3,8.7-6.9,20.1-10.7,34.4l-8.8,32.9
			c-0.5,1.8-1.1,4.5-2,8l-1.7,7.3c3.7,0.8,7,1.2,10,1.2c2.5,0,5.1-0.3,7.9-0.8l-0.9,4c-2.5,0.4-4.4,0.6-5.7,0.6
			c-2,0-4.8-0.2-8.5-0.6c-3-0.4-5.7-0.5-8.1-0.5c-2.5,0-5.3,0.5-8.5,1.4c2.7-6.6,5.4-15.4,8.3-26.6l5.6-21
			c2.4-9.1,4.4-15.3,6.1-18.7c-3.9,4.2-9.8,11.8-17.9,22.9c-6.5,9-13.7,20.3-21.7,34.1L103.5,181.3z"/>
		<path id="XMLID_5_" class="st1" d="M231,174.4l-1,3.9c-3.3,0.7-6,1-8.1,1c-2,0-5.4-0.2-10-0.6c-3.5-0.3-6.7-0.4-9.4-0.4
			c-4.8,0-9.8,0.4-14.9,1.2l1-3.8c4.9-0.5,8.4-1.4,10.6-2.9c1.6-1.1,2.9-2.8,4.1-5.4c1.1-2.5,3.7-11.4,7.7-26.6l9.2-36.4l0.5-1.7
			c-2.8-0.1-5-0.2-6.4-0.2c-8.9,0-15.9,0.9-21.2,2.7c-5.2,1.8-9.1,4.5-11.8,8c-2.6,3.5-3.9,7.2-3.9,11.3c0,1.4,0.3,2.7,0.8,3.9
			c0.4,0.8,1.4,2.2,3.2,4c1.6,1.7,2.5,3.3,2.5,4.7c0,1.2-0.5,2.3-1.4,3.2c-1,0.9-2.1,1.3-3.5,1.3c-2,0-3.7-0.9-4.9-2.7
			c-1.8-2.7-2.7-6.1-2.7-10.3c0-5.6,1.8-11,5.4-16.3c3.6-5.3,8.6-9.3,15-12.2c6.3-2.9,14.1-4.3,23.1-4.3c4.3,0,11.2,0.6,20.7,1.8
			c6.7,0.8,11.6,1.2,14.6,1.2c3,0,5.2-0.5,6.4-1.4c1.2-1,1.9-2.2,1.9-3.8c0-0.3-0.1-1-0.2-1.9c-0.1-0.9-0.2-1.4-0.2-1.7
			c0-1.2,0.4-2.3,1.3-3.1c0.9-0.8,1.9-1.2,3.1-1.2c1.4,0,2.6,0.5,3.6,1.5c0.9,1,1.4,2.4,1.4,4c0,3.5-1.9,6.5-5.8,9
			c-3.9,2.5-10.4,3.8-19.5,3.8c-3.3,0-6.7-0.1-10.4-0.4c-0.5,1.6-2,7.2-4.6,16.7l-6.3,23.7l-3.8,14.5l-4,16.5c3.2,0.4,5.9,0.5,8,0.5
			C224.1,175.6,227.5,175.2,231,174.4z"/>
	</g>
</g>
</svg>
